<svg width="177" height="36" viewBox="0 0 177 36" fill="none" xmlns="http://www.w3.org/2000/svg">
<path d="M46.5798 0H6.21636C2.78316 0 0 1.89769 0 4.23862V31.7614C0 34.1023 2.78316 36 6.21636 36H46.5798C50.013 36 52.7961 34.1023 52.7961 31.7614V4.23862C52.7961 1.89769 50.013 0 46.5798 0Z" fill="url(#paint0_linear_5_3)"/>
<path d="M3.48451 16.2067C3.19619 15.9178 3.19619 15.449 3.48451 15.16C3.77282 14.8711 4.24066 14.8711 4.52897 15.16L16.8183 27.4756C17.1066 27.7645 17.1066 28.2334 16.8183 28.5223C16.53 28.8112 16.0621 28.8112 15.7738 28.5223L3.48451 16.2067Z" fill="#FEFEFE"/>
<path d="M24.2157 19.0161C24.504 18.7272 24.9718 18.7272 25.2602 19.0161C25.5485 19.305 25.5485 19.7739 25.2602 20.0628L16.8183 28.5223C16.53 28.8112 16.0621 28.8112 15.7738 28.5223C15.4855 28.2334 15.4857 27.7645 15.774 27.4756L24.2157 19.0161Z" fill="#FEFEFE"/>
<path d="M4.52897 16.2067C4.24066 16.4956 3.77282 16.4956 3.48451 16.2067C3.19619 15.9178 3.19619 15.449 3.48451 15.16L11.1497 7.47846C11.438 7.18953 11.9059 7.18953 12.1942 7.47846C12.4825 7.76739 12.4825 8.23623 12.1942 8.52516L4.52897 16.2067Z" fill="#FEFEFE"/>
<path d="M48.2679 15.16C48.5562 14.8711 49.0241 14.8711 49.3124 15.16C49.6007 15.449 49.6007 15.9178 49.3124 16.2067L37.0231 28.5223C36.7348 28.8112 36.2669 28.8112 35.9786 28.5223C35.6903 28.2334 35.6903 27.7645 35.9786 27.4756L48.2679 15.16Z" fill="#FEFEFE"/>
<path d="M19.6484 12.1574C19.3601 11.8685 19.3601 11.3997 19.6484 11.1107C19.9367 10.8218 20.4046 10.8218 20.6929 11.1107L37.0231 27.4758C37.3114 27.7647 37.3114 28.2334 37.0231 28.5223C36.7348 28.8112 36.2669 28.8112 35.9786 28.5223L19.6484 12.1574Z" fill="#FEFEFE"/>
<path d="M49.3124 15.16C49.6007 15.449 49.6007 15.9178 49.3124 16.2067C49.0241 16.4956 48.5564 16.4956 48.2681 16.2067L40.6029 8.52516C40.3146 8.23623 40.3146 7.76739 40.6029 7.47846C40.8912 7.18953 41.3591 7.18953 41.6474 7.47846L49.3124 15.16Z" fill="#FEFEFE"/>
<path d="M63.0931 3.68662C63.0931 3.33901 62.9712 3.04323 62.7229 2.79435C62.4745 2.5549 62.1841 2.43731 61.8466 2.43731H61.8043C61.4671 2.43731 61.1717 2.5549 60.9233 2.79435C60.6797 3.04323 60.5532 3.33922 60.5532 3.68662V16.8964C60.5532 18.6102 61.1578 20.071 62.3666 21.2824C63.5756 22.4938 65.033 23.0997 66.7482 23.0997C68.7867 23.0997 70.4315 22.2873 71.673 20.6623C72.9102 22.2873 74.5504 23.0997 76.5886 23.0997C78.2991 23.0997 79.7609 22.4938 80.9702 21.2824C82.179 20.071 82.7789 18.6102 82.7789 16.8964V3.68662C82.7789 3.33901 82.6618 3.04323 82.4229 2.79435C82.179 2.5549 81.8791 2.43731 81.5325 2.43731H81.5045C81.1576 2.43731 80.8625 2.5549 80.6235 2.79435C80.3797 3.04323 80.2533 3.33922 80.2533 3.68662V16.8964C80.2533 17.906 79.8971 18.7653 79.1849 19.4792C78.4728 20.1978 77.6057 20.5548 76.5888 20.5548C75.5814 20.5548 74.7239 20.1978 74.0069 19.4792C73.2947 18.7655 72.9384 17.906 72.9384 16.8964V3.68662C72.9384 3.33901 72.8119 3.04323 72.5685 2.79435C72.3293 2.5549 72.0342 2.43731 71.6875 2.43731H71.6593C71.3124 2.43731 71.0175 2.5549 70.7691 2.79435C70.5208 3.04323 70.399 3.33922 70.399 3.68662V16.8964C70.399 17.906 70.0427 18.7653 69.3259 19.4792C68.6135 20.1978 67.7514 20.5548 66.7484 20.5548C65.7409 20.5548 64.8787 20.1978 64.1664 19.4792C63.4496 18.7655 63.0933 17.906 63.0933 16.8964L63.0931 3.68662ZM87.5071 2.43731C87.8444 2.43731 88.1348 2.5549 88.3834 2.79435C88.6317 3.04323 88.7536 3.33922 88.7536 3.68662V21.8459C88.7536 22.1982 88.6317 22.4893 88.3834 22.7287C88.135 22.9776 87.8446 23.0997 87.5071 23.0997H87.4648C87.1275 23.0997 86.8322 22.9776 86.5838 22.7287C86.3402 22.4893 86.2139 22.1982 86.2139 21.8459V3.68662C86.2139 3.33901 86.3404 3.04323 86.5838 2.79435C86.8322 2.5549 87.1275 2.43731 87.4648 2.43731H87.5071ZM105.572 21.8459C105.572 22.1982 105.445 22.4893 105.201 22.7287C104.953 22.9776 104.658 23.0997 104.321 23.0997H104.278C103.941 23.0997 103.651 22.9776 103.402 22.7287C103.154 22.4893 103.032 22.1982 103.032 21.8459V9.13386C103.032 7.988 102.629 7.00662 101.823 6.18953C101.008 5.37714 100.023 4.96849 98.871 4.96849C97.7276 4.96849 96.7483 5.37714 95.9328 6.18953C95.1268 7.00641 94.7239 7.988 94.7239 9.13386V21.8459C94.7239 22.1982 94.6021 22.4893 94.3538 22.7287C94.1054 22.9776 93.815 23.0997 93.4775 23.0997H93.4352C93.0979 23.0997 92.8026 22.9776 92.5542 22.7287C92.3106 22.4893 92.184 22.1982 92.184 21.8459V9.13386C92.184 7.28377 92.8402 5.7012 94.1475 4.39085C95.4598 3.08563 97.0294 2.43731 98.8712 2.43731C100.722 2.43731 102.301 3.08563 103.609 4.39085C104.916 5.7012 105.572 7.28377 105.572 9.13386L105.572 21.8459ZM111.129 19.6342C111.129 19.8878 111.218 20.1084 111.392 20.2916C111.574 20.4653 111.794 20.5548 112.052 20.5548H114.123C116.274 20.5548 118.111 19.7987 119.629 18.2864C121.148 16.7604 121.907 14.924 121.907 12.7687C121.907 10.6132 121.147 8.77232 119.629 7.251C118.111 5.72947 116.274 4.96892 114.123 4.96892H112.052C111.794 4.96892 111.574 5.05802 111.392 5.24135C111.218 5.42426 111.129 5.64508 111.129 5.90338V19.6342ZM114.123 2.43731C116.968 2.43731 119.4 3.44224 121.415 5.46153C123.425 7.48103 124.433 9.91347 124.433 12.7685C124.433 15.619 123.425 18.0562 121.415 20.071C119.4 22.0902 116.968 23.0999 114.123 23.0999H112.052C111.096 23.0999 110.286 22.7619 109.606 22.0808C108.931 21.4047 108.589 20.5876 108.589 19.6342V5.90317C108.589 4.94043 108.931 4.11862 109.606 3.43775C110.286 2.77079 111.096 2.43731 112.052 2.43731H114.123ZM132.122 4.94022C131.223 4.94022 130.459 5.25506 129.831 5.88903C129.198 6.52301 128.88 7.28827 128.88 8.18526C128.88 9.2795 129.376 10.1058 130.365 10.6742C130.768 10.9043 131.902 11.2894 133.767 11.834C135.271 12.2802 136.359 12.8156 137.038 13.426C138.027 14.3275 138.519 15.6049 138.519 17.2676C138.519 18.8829 137.947 20.2588 136.804 21.3952C135.67 22.5317 134.301 23.0999 132.699 23.0999H127.469C127.127 23.0999 126.837 22.9778 126.588 22.7289C126.34 22.48 126.218 22.189 126.218 21.8461V21.7664C126.218 21.4284 126.34 21.1324 126.588 20.8836C126.837 20.6392 127.127 20.5126 127.469 20.5126H132.835C133.725 20.5126 134.489 20.198 135.126 19.564C135.759 18.93 136.077 18.1648 136.077 17.2678C136.077 16.1922 135.581 15.3609 134.592 14.7649C134.161 14.5066 133.027 14.0885 131.19 13.5111C129.676 13.0178 128.589 12.4639 127.919 11.858C126.93 10.9705 126.438 9.7447 126.438 8.18568C126.438 6.57013 127.005 5.19445 128.139 4.05801C129.273 2.92136 130.646 2.35335 132.258 2.35335H135.951C136.298 2.35335 136.597 2.47522 136.846 2.7241C137.08 2.96376 137.202 3.25484 137.202 3.60695V3.68684C137.202 4.02481 137.08 4.32081 136.846 4.56969C136.597 4.81385 136.298 4.94043 135.951 4.94043L132.122 4.94022ZM150.89 2.43731C153.734 2.43731 156.171 3.44224 158.19 5.46153C160.205 7.48103 161.213 9.91347 161.213 12.7685C161.213 15.619 160.205 18.0562 158.19 20.071C156.171 22.0902 153.734 23.0999 150.89 23.0999C148.041 23.0999 145.613 22.0902 143.598 20.071C141.583 18.0564 140.576 15.619 140.576 12.7685C140.576 9.91347 141.583 7.48103 143.598 5.46153C145.613 3.44224 148.041 2.43731 150.89 2.43731ZM150.89 4.9687C148.748 4.9687 146.916 5.72947 145.398 7.25079C143.875 8.77232 143.116 10.6132 143.116 12.7685C143.116 14.924 143.875 16.7602 145.398 18.2862C146.916 19.7985 148.748 20.5546 150.89 20.5546C153.041 20.5546 154.873 19.7985 156.391 18.2862C157.914 16.7602 158.673 14.9238 158.673 12.7685C158.673 10.613 157.914 8.77211 156.391 7.25079C154.873 5.72926 153.041 4.9687 150.89 4.9687ZM170.547 12.8345C171.625 12.8345 172.553 12.4541 173.322 11.6933C174.09 10.9231 174.474 9.99808 174.474 8.91325C174.474 7.82372 174.09 6.89375 173.322 6.12377C172.553 5.36279 171.625 4.98262 170.547 4.98262H168.968C168.172 4.98262 167.539 5.20794 167.075 5.66821C166.709 6.02525 166.48 6.45254 166.386 6.94558C166.358 7.07688 166.344 7.26471 166.344 7.51359V12.8342L170.547 12.8345ZM174.474 19.3008C174.474 18.2207 174.09 17.2956 173.321 16.5254C172.623 15.8163 171.789 15.4359 170.819 15.3796H166.344V21.8459C166.344 22.1982 166.227 22.4893 165.988 22.7287C165.739 22.9776 165.444 23.0997 165.097 23.0997H165.069C164.722 23.0997 164.427 22.9776 164.188 22.7287C163.945 22.4893 163.818 22.1982 163.818 21.8459V7.38701C163.818 6.02033 164.301 4.85583 165.262 3.89309C166.232 2.92093 167.398 2.43731 168.762 2.43731H170.547C172.333 2.43731 173.851 3.06657 175.102 4.33473C176.367 5.59796 177 7.12871 177 8.91347C177 10.6933 176.367 12.2193 175.102 13.4826C174.878 13.7126 174.643 13.9193 174.404 14.1022C174.652 14.2947 174.891 14.5061 175.116 14.7362C176.372 15.99 177 17.5164 177 19.3008V21.8459C177 22.1982 176.873 22.4893 176.63 22.7287C176.381 22.9776 176.086 23.0997 175.749 23.0997H175.721C175.383 23.0997 175.093 22.9776 174.844 22.7287C174.596 22.4893 174.474 22.1982 174.474 21.8459V19.3008Z" fill="#91D8F7"/>
<path d="M60.6906 31.2012C60.5991 31.1663 60.5532 31.0982 60.5532 30.9982V30.2593C60.5532 30.1593 60.5991 30.0894 60.6906 30.052L64.441 28.5921C64.5145 28.563 64.5825 28.5698 64.6451 28.6131C64.7103 28.6561 64.7424 28.7174 64.7424 28.7966V29.0695C64.7424 29.167 64.6964 29.2351 64.6049 29.2726L61.1668 30.6264L64.6049 31.9845C64.6964 32.0194 64.7424 32.0875 64.7424 32.1875V32.4604C64.7424 32.5397 64.7103 32.6009 64.6451 32.644C64.5825 32.6872 64.5145 32.6941 64.441 32.6649L60.6906 31.2012ZM69.1944 30.2104H71.0134C71.1135 30.2104 71.2011 30.2466 71.2731 30.3162C71.3468 30.3899 71.3828 30.479 71.3828 30.5818V30.5902C71.3828 30.6932 71.3466 30.7795 71.2731 30.8504C71.2011 30.9241 71.1135 30.9603 71.0134 30.9603H69.1944V33.2758C69.1944 33.3801 69.1583 33.4664 69.0848 33.5373C69.0113 33.6112 68.9251 33.6472 68.8251 33.6472H68.8127C68.7127 33.6472 68.6251 33.611 68.5516 33.5373C68.4793 33.4664 68.4419 33.3801 68.4419 33.2758V28.8896C68.4419 28.5124 68.5753 28.1897 68.8405 27.9239C69.107 27.6568 69.4278 27.5244 69.8057 27.5244H71.0541C71.1539 27.5244 71.2415 27.5593 71.315 27.6302C71.3872 27.7041 71.4246 27.7915 71.4246 27.8947V27.9031C71.4246 28.0061 71.3872 28.0952 71.315 28.1676C71.2415 28.2385 71.1541 28.2747 71.0541 28.2747H69.8057C69.6375 28.2747 69.4932 28.3344 69.3737 28.4544C69.2545 28.5726 69.1946 28.7189 69.1946 28.8898L69.1944 30.2104ZM74.7949 30.6056C75.1142 30.6056 75.3892 30.493 75.6168 30.2676C75.8447 30.0393 75.9586 29.7652 75.9586 29.4437C75.9586 29.1209 75.8447 28.8455 75.6168 28.6172C75.3892 28.3916 75.1142 28.279 74.7949 28.279H74.3268C74.0908 28.279 73.9034 28.346 73.766 28.482C73.6574 28.5878 73.5894 28.7146 73.5619 28.8607C73.5535 28.8997 73.5493 28.9554 73.5493 29.029V30.6056H74.7949ZM75.9586 32.5219C75.9586 32.2019 75.8447 31.9275 75.6168 31.6994C75.41 31.4893 75.1629 31.3764 74.8754 31.36H73.5493V33.2762C73.5493 33.3805 73.5144 33.4668 73.4437 33.5377C73.3702 33.6116 73.2828 33.6476 73.1797 33.6476H73.1716C73.0688 33.6476 72.9812 33.6114 72.9104 33.5377C72.8382 33.4668 72.8008 33.3805 72.8008 33.2762V28.9915C72.8008 28.5867 72.9438 28.2415 73.2285 27.9564C73.5159 27.6683 73.8617 27.5251 74.2659 27.5251H74.7949C75.3238 27.5251 75.7739 27.7116 76.1445 28.0873C76.5194 28.4617 76.707 28.9153 76.707 29.4441C76.707 29.9714 76.5194 30.4238 76.1445 30.7982C76.0778 30.8663 76.0084 30.9277 75.9376 30.9817C76.0114 31.0389 76.0821 31.1014 76.1488 31.1695C76.5209 31.5411 76.707 31.9935 76.707 32.5223V33.2764C76.707 33.3807 76.6696 33.4671 76.5974 33.5379C76.5237 33.6118 76.4365 33.6478 76.3362 33.6478H76.3279C76.2281 33.6478 76.142 33.6116 76.0682 33.5379C75.9947 33.4671 75.9588 33.3807 75.9588 33.2764L75.9586 32.5219ZM81.1397 27.5248C81.9826 27.5248 82.7045 27.8226 83.303 28.4212C83.8999 29.0194 84.1987 29.7403 84.1987 30.5863C84.1987 31.4311 83.9001 32.1531 83.303 32.7502C82.7045 33.3484 81.9824 33.6478 81.1397 33.6478C80.2955 33.6478 79.5763 33.3486 78.9791 32.7502C78.382 32.1531 78.0834 31.4311 78.0834 30.5863C78.0834 29.7403 78.3818 29.0196 78.9791 28.4212C79.5761 27.8228 80.2955 27.5248 81.1397 27.5248ZM81.1397 28.2749C80.5051 28.2749 79.9623 28.5004 79.5124 28.9513C79.061 29.4021 78.8362 29.9476 78.8362 30.5863C78.8362 31.2252 79.061 31.769 79.5124 32.2214C79.9623 32.6697 80.5051 32.8935 81.1397 32.8935C81.7772 32.8935 82.3198 32.6697 82.7699 32.2214C83.2213 31.769 83.4462 31.2252 83.4462 30.5863C83.4462 29.9476 83.2213 29.4021 82.7699 28.9513C82.3198 28.5004 81.7772 28.2749 81.1397 28.2749ZM89.7448 33.2762C89.7448 33.3805 89.7074 33.4668 89.6354 33.5377C89.5617 33.6116 89.4742 33.6476 89.3742 33.6476H89.3616C89.2618 33.6476 89.1757 33.6114 89.1019 33.5377C89.0284 33.4668 88.9925 33.3805 88.9925 33.2762V29.5092C88.9925 29.1697 88.873 28.8789 88.6343 28.6367C88.3926 28.3959 88.1011 28.2749 87.7593 28.2749C87.4206 28.2749 87.1305 28.3959 86.8888 28.6367C86.6499 28.8789 86.5306 29.1697 86.5306 29.5092V33.2762C86.5306 33.3805 86.4945 33.4668 86.421 33.5377C86.3475 33.6116 86.2613 33.6476 86.1613 33.6476H86.1489C86.0489 33.6476 85.9613 33.6114 85.8877 33.5377C85.8155 33.4668 85.7781 33.3805 85.7781 33.2762V29.5092C85.7781 28.9609 85.9724 28.4921 86.3599 28.1038C86.7488 27.7168 87.2139 27.5248 87.7595 27.5248C88.3082 27.5248 88.776 27.717 89.1635 28.1038C89.551 28.4921 89.7452 28.9609 89.7452 29.5092L89.7448 33.2762ZM94.8802 27.9035C94.8802 28.0065 94.844 28.0956 94.7705 28.168C94.6998 28.2389 94.6136 28.2751 94.5096 28.2751H93.3958V33.2764C93.3958 33.3807 93.3595 33.4671 93.2888 33.5379C93.2165 33.6118 93.1278 33.6478 93.0248 33.6478H93.0167C92.9139 33.6478 92.825 33.6116 92.7528 33.5379C92.682 33.4671 92.6472 33.3807 92.6472 33.2764V28.2751H91.532C91.4322 28.2751 91.3445 28.2389 91.271 28.168C91.1988 28.0956 91.1614 28.0068 91.1614 27.9035V27.8952C91.1614 27.7921 91.1988 27.7045 91.271 27.6306C91.3445 27.5598 91.4319 27.5248 91.532 27.5248H94.5091C94.6132 27.5248 94.6994 27.5598 94.7701 27.6306C94.8438 27.7045 94.8797 27.7919 94.8797 27.8952L94.8802 27.9035ZM98.4617 30.5906C98.4617 30.6936 98.4254 30.78 98.3521 30.8508C98.2784 30.9245 98.1912 30.9607 98.0869 30.9607H96.4235C96.3207 30.9607 96.233 30.9243 96.1638 30.8508C96.0901 30.78 96.0541 30.6936 96.0541 30.5906V30.5823C96.0541 30.4795 96.0903 30.3901 96.1638 30.3167C96.233 30.2443 96.3207 30.2068 96.4235 30.2068H98.0869C98.1912 30.2068 98.2786 30.2443 98.3521 30.3167C98.4256 30.3904 98.4617 30.4795 98.4617 30.5823V30.5906ZM100.671 30.2109H102.735C102.835 30.2109 102.921 30.2471 102.994 30.3167C103.068 30.3904 103.104 30.4795 103.104 30.5823V30.5906C103.104 30.6936 103.068 30.7812 102.994 30.8551C102.921 30.926 102.835 30.9609 102.735 30.9609H100.671V32.2829C100.671 32.4512 100.731 32.5945 100.85 32.7142C100.97 32.8337 101.114 32.8937 101.282 32.8937H102.735C102.835 32.8937 102.921 32.9299 102.994 33.0036C103.068 33.0772 103.104 33.1648 103.104 33.2691V33.2762C103.104 33.3805 103.068 33.4668 102.994 33.5377C102.921 33.6116 102.835 33.6476 102.735 33.6476H101.282C100.904 33.6476 100.584 33.514 100.317 33.2482C100.052 32.9811 99.9185 32.6596 99.9185 32.2824V28.8898C99.9185 28.5126 100.052 28.1899 100.317 27.9241C100.584 27.657 100.904 27.5246 101.282 27.5246H102.735C102.835 27.5246 102.921 27.561 102.994 27.6345C103.068 27.7041 103.104 27.7917 103.104 27.8947V27.9031C103.104 28.0061 103.068 28.0952 102.994 28.1676C102.921 28.2413 102.835 28.2788 102.735 28.2788H101.282C101.114 28.2788 100.97 28.3385 100.85 28.4585C100.731 28.5767 100.671 28.7215 100.671 28.8898V30.2109ZM108.549 33.2764C108.549 33.3807 108.511 33.4671 108.439 33.5379C108.366 33.6118 108.278 33.6478 108.178 33.6478H108.166C108.066 33.6478 107.98 33.6116 107.906 33.5379C107.832 33.4671 107.797 33.3807 107.797 33.2764V29.5094C107.797 29.17 107.677 28.8791 107.438 28.6369C107.197 28.3961 106.905 28.2751 106.563 28.2751C106.225 28.2751 105.935 28.3961 105.693 28.6369C105.454 28.8791 105.335 29.17 105.335 29.5094V33.2764C105.335 33.3807 105.299 33.4671 105.225 33.5379C105.151 33.6118 105.065 33.6478 104.965 33.6478H104.953C104.853 33.6478 104.765 33.6116 104.692 33.5379C104.62 33.4671 104.582 33.3807 104.582 33.2764V29.5094C104.582 28.9611 104.776 28.4923 105.164 28.104C105.553 27.717 106.018 27.5251 106.564 27.5251C107.112 27.5251 107.58 27.7172 107.968 28.104C108.355 28.4923 108.549 28.9611 108.549 29.5094L108.549 33.2764ZM111.003 32.6208C111.003 32.6962 111.029 32.7613 111.081 32.8157C111.135 32.8671 111.2 32.8937 111.276 32.8937H111.89C112.528 32.8937 113.072 32.6699 113.522 32.2216C113.972 31.7693 114.197 31.2254 114.197 30.5865C114.197 29.9479 113.972 29.4023 113.522 28.9515C113.072 28.5006 112.528 28.2751 111.89 28.2751H111.276C111.2 28.2751 111.135 28.3015 111.081 28.3559C111.029 28.4103 111.003 28.4754 111.003 28.5521V32.6208ZM111.89 27.5251C112.733 27.5251 113.453 27.8228 114.051 28.4214C114.646 29.0196 114.945 29.7405 114.945 30.5865C114.945 31.4313 114.646 32.1533 114.051 32.7504C113.454 33.3486 112.733 33.648 111.89 33.648H111.276C110.993 33.648 110.753 33.548 110.551 33.346C110.351 33.1456 110.25 32.9038 110.25 32.621V28.5523C110.25 28.267 110.351 28.0235 110.551 27.8217C110.753 27.624 110.993 27.5253 111.276 27.5253L111.89 27.5251ZM119.437 32.6208C119.437 32.6962 119.464 32.7613 119.515 32.8157C119.569 32.8671 119.634 32.8937 119.711 32.8937H120.325C120.962 32.8937 121.506 32.6699 121.956 32.2216C122.406 31.7693 122.631 31.2254 122.631 30.5865C122.631 29.9479 122.406 29.4023 121.956 28.9515C121.506 28.5006 120.962 28.2751 120.325 28.2751H119.711C119.634 28.2751 119.569 28.3015 119.515 28.3559C119.464 28.4103 119.437 28.4754 119.437 28.5521V32.6208ZM120.324 27.5251C121.167 27.5251 121.888 27.8228 122.485 28.4214C123.081 29.0196 123.379 29.7405 123.379 30.5865C123.379 31.4313 123.081 32.1533 122.485 32.7504C121.888 33.3486 121.167 33.648 120.324 33.648H119.711C119.427 33.648 119.187 33.548 118.986 33.346C118.786 33.1456 118.684 32.9038 118.684 32.621V28.5523C118.684 28.267 118.786 28.0235 118.986 27.8217C119.187 27.624 119.427 27.5253 119.711 27.5253L120.324 27.5251ZM125.63 30.2109H127.694C127.794 30.2109 127.88 30.2471 127.953 30.3167C128.027 30.3904 128.063 30.4795 128.063 30.5823V30.5906C128.063 30.6936 128.027 30.7812 127.953 30.8551C127.88 30.926 127.794 30.9609 127.694 30.9609H125.63V32.2829C125.63 32.4512 125.69 32.5945 125.81 32.7142C125.929 32.8337 126.074 32.8937 126.242 32.8937H127.694C127.794 32.8937 127.88 32.9299 127.953 33.0036C128.027 33.0772 128.063 33.1648 128.063 33.2691V33.2762C128.063 33.3805 128.027 33.4668 127.953 33.5377C127.88 33.6116 127.794 33.6476 127.694 33.6476H126.242C125.864 33.6476 125.543 33.514 125.276 33.2482C125.011 32.9811 124.878 32.6596 124.878 32.2824V28.8898C124.878 28.5126 125.011 28.1899 125.276 27.9241C125.543 27.657 125.864 27.5246 126.242 27.5246H127.694C127.794 27.5246 127.88 27.561 127.953 27.6345C128.027 27.7041 128.063 27.7917 128.063 27.8947V27.9031C128.063 28.0061 128.027 28.0952 127.953 28.1676C127.88 28.2413 127.794 28.2788 127.694 28.2788H126.242C126.073 28.2788 125.929 28.3385 125.81 28.4585C125.69 28.5767 125.63 28.7215 125.63 28.8898V30.2109ZM131.445 32.6572C131.456 32.6572 131.466 32.6489 131.474 32.6335L131.487 32.6084L132.963 27.7729C133.02 27.6073 133.136 27.5251 133.312 27.5251H133.342C133.468 27.5251 133.569 27.5767 133.641 27.6795C133.718 27.7825 133.734 27.8952 133.691 28.0177L132.022 33.2524C131.92 33.5155 131.728 33.6476 131.445 33.6476C131.163 33.6476 130.97 33.5155 130.863 33.2524L129.199 28.0177C129.156 27.8952 129.172 27.7825 129.244 27.6795C129.32 27.5767 129.422 27.5251 129.55 27.5251H129.579C129.755 27.5251 129.872 27.6073 129.928 27.7729L131.405 32.6084L131.417 32.6335C131.425 32.6489 131.435 32.6572 131.445 32.6572ZM135.804 30.2109H137.867C137.967 30.2109 138.053 30.2471 138.127 30.3167C138.201 30.3904 138.237 30.4795 138.237 30.5823V30.5906C138.237 30.6936 138.2 30.7812 138.127 30.8551C138.053 30.926 137.967 30.9609 137.867 30.9609H135.804V32.2829C135.804 32.4512 135.864 32.5945 135.983 32.7142C136.103 32.8337 136.247 32.8937 136.415 32.8937H137.867C137.967 32.8937 138.053 32.9299 138.127 33.0036C138.201 33.0772 138.237 33.1648 138.237 33.2691V33.2762C138.237 33.3805 138.2 33.4668 138.127 33.5377C138.053 33.6116 137.967 33.6476 137.867 33.6476H136.415C136.037 33.6476 135.716 33.514 135.45 33.2482C135.185 32.9811 135.051 32.6596 135.051 32.2824V28.8898C135.051 28.5126 135.185 28.1899 135.45 27.9241C135.716 27.657 136.037 27.5246 136.415 27.5246H137.867C137.967 27.5246 138.053 27.561 138.127 27.6345C138.201 27.7041 138.237 27.7917 138.237 27.8947V27.9031C138.237 28.0061 138.2 28.0952 138.127 28.1676C138.053 28.2413 137.967 28.2788 137.867 28.2788H136.415C136.247 28.2788 136.103 28.3385 135.983 28.4585C135.864 28.5767 135.804 28.7215 135.804 28.8898V30.2109ZM140.509 27.8954C140.509 27.7924 140.471 27.7048 140.399 27.6309C140.325 27.56 140.238 27.5251 140.138 27.5251H140.125C140.025 27.5251 139.938 27.56 139.866 27.6309C139.792 27.7048 139.756 27.7921 139.756 27.8954V32.2829C139.756 32.66 139.888 32.9815 140.155 33.2486C140.42 33.5142 140.742 33.648 141.118 33.648H142.303C142.406 33.648 142.493 33.6118 142.567 33.5382C142.64 33.4673 142.676 33.381 142.676 33.2766V33.2696C142.676 33.1653 142.64 33.0775 142.567 33.004C142.493 32.9301 142.406 32.8941 142.303 32.8941H141.118C140.95 32.8941 140.806 32.8344 140.687 32.7146C140.568 32.5949 140.509 32.4514 140.509 32.2833L140.509 27.8954ZM146.905 27.5253C147.747 27.5253 148.469 27.823 149.068 28.4216C149.665 29.0198 149.964 29.7407 149.964 30.5868C149.964 31.4315 149.665 32.1535 149.068 32.7506C148.469 33.3488 147.747 33.6483 146.905 33.6483C146.06 33.6483 145.341 33.349 144.744 32.7506C144.147 32.1535 143.848 31.4315 143.848 30.5868C143.848 29.7407 144.147 29.02 144.744 28.4216C145.341 27.8232 146.06 27.5253 146.905 27.5253ZM146.905 28.2753C146.27 28.2753 145.727 28.5009 145.277 28.9517C144.826 29.4026 144.601 29.9481 144.601 30.5868C144.601 31.2257 144.826 31.7695 145.277 32.2218C145.727 32.6701 146.27 32.8939 146.905 32.8939C147.542 32.8939 148.085 32.6701 148.535 32.2218C148.986 31.7695 149.211 31.2257 149.211 30.5868C149.211 29.9481 148.986 29.4026 148.535 28.9517C148.085 28.5009 147.542 28.2753 146.905 28.2753ZM152.295 30.8553H153.581C153.936 30.8553 154.24 30.7288 154.492 30.4767C154.742 30.2263 154.867 29.9228 154.867 29.5668C154.867 29.2119 154.742 28.9072 154.492 28.654C154.24 28.4006 153.936 28.2753 153.581 28.2753C153.225 28.2753 152.921 28.4006 152.67 28.654C152.42 28.9074 152.295 29.2119 152.295 29.5668V30.8553ZM152.295 31.6095V33.2766C152.295 33.381 152.259 33.4673 152.185 33.5382C152.112 33.612 152.026 33.648 151.926 33.648H151.913C151.813 33.648 151.726 33.6118 151.652 33.5382C151.58 33.4673 151.543 33.381 151.543 33.2766V29.5668C151.543 29.0018 151.743 28.5191 152.141 28.1196C152.54 27.723 153.02 27.5253 153.581 27.5253C154.145 27.5253 154.625 27.723 155.021 28.1196C155.419 28.5191 155.619 29.0018 155.619 29.5668C155.619 30.1303 155.419 30.6105 155.021 31.0098C154.625 31.4105 154.144 31.6095 153.581 31.6095H152.295ZM157.911 30.2111H159.974C160.074 30.2111 160.16 30.2473 160.234 30.3169C160.308 30.3906 160.343 30.4797 160.343 30.5825V30.5908C160.343 30.6939 160.307 30.7815 160.234 30.8553C160.16 30.9262 160.074 30.9611 159.974 30.9611H157.911V32.2831C157.911 32.4514 157.97 32.5947 158.09 32.7144C158.209 32.8339 158.354 32.8939 158.522 32.8939H159.974C160.074 32.8939 160.16 32.9301 160.234 33.0038C160.308 33.0775 160.343 33.1651 160.343 33.2694V33.2764C160.343 33.3807 160.307 33.4671 160.234 33.5379C160.16 33.6118 160.074 33.6478 159.974 33.6478H158.522C158.144 33.6478 157.823 33.5142 157.557 33.2484C157.292 32.9813 157.158 32.6598 157.158 32.2826V28.89C157.158 28.5129 157.291 28.1901 157.557 27.9243C157.823 27.6572 158.144 27.5248 158.522 27.5248H159.974C160.074 27.5248 160.16 27.5613 160.234 27.6347C160.308 27.7043 160.343 27.7919 160.343 27.8949V27.9033C160.343 28.0063 160.307 28.0954 160.234 28.1678C160.16 28.2415 160.074 28.279 159.974 28.279H158.522C158.354 28.279 158.209 28.3387 158.09 28.4587C157.971 28.5769 157.911 28.7217 157.911 28.89V30.2111ZM163.815 30.6063C164.135 30.6063 164.41 30.4936 164.637 30.2683C164.865 30.04 164.979 29.7658 164.979 29.4443C164.979 29.1216 164.865 28.8461 164.637 28.6178C164.41 28.3923 164.135 28.2796 163.815 28.2796H163.347C163.111 28.2796 162.924 28.3467 162.787 28.4827C162.678 28.5885 162.61 28.7153 162.582 28.8613C162.574 28.9003 162.57 28.956 162.57 29.0297V30.6063H163.815ZM164.979 32.5225C164.979 32.2025 164.865 31.9282 164.637 31.7001C164.431 31.49 164.183 31.3771 163.896 31.3606H162.57V33.2769C162.57 33.3812 162.535 33.4675 162.464 33.5384C162.391 33.6123 162.303 33.6483 162.2 33.6483H162.192C162.089 33.6483 162.002 33.6121 161.931 33.5384C161.859 33.4675 161.821 33.3812 161.821 33.2769V28.9922C161.821 28.5874 161.964 28.2421 162.249 27.9571C162.536 27.669 162.882 27.5257 163.286 27.5257H163.815C164.344 27.5257 164.794 27.7123 165.165 28.0879C165.54 28.4623 165.728 28.9159 165.728 29.4448C165.728 29.9721 165.54 30.4244 165.165 30.7988C165.098 30.8669 165.029 30.9284 164.958 30.9824C165.032 31.0395 165.103 31.1021 165.169 31.1702C165.541 31.5418 165.728 31.9941 165.728 32.5229V33.2771C165.728 33.3814 165.69 33.4677 165.618 33.5386C165.544 33.6125 165.457 33.6485 165.357 33.6485H165.348C165.249 33.6485 165.162 33.6123 165.089 33.5386C165.015 33.4677 164.979 33.3814 164.979 33.2771L164.979 32.5225ZM171.562 27.5255L169.756 33.6483H169.06L170.871 27.5255H171.562ZM172.914 32.666C172.842 32.6951 172.774 32.6883 172.711 32.645C172.646 32.602 172.614 32.5407 172.614 32.4615V32.1886C172.614 32.0886 172.66 32.0203 172.751 31.9856L176.194 30.6275L172.751 29.2736C172.66 29.2361 172.614 29.1678 172.614 29.0706V28.7977C172.614 28.7185 172.646 28.6572 172.711 28.6142C172.774 28.5709 172.842 28.564 172.914 28.5932L176.666 30.053C176.757 30.0905 176.803 30.1603 176.803 30.2604V30.9993C176.803 31.0993 176.757 31.1676 176.666 31.2023L172.914 32.666Z" fill="#1692C5"/>
<defs>
<linearGradient id="paint0_linear_5_3" x1="-9.53964" y1="10.3667" x2="101.29" y2="109.469" gradientUnits="userSpaceOnUse">
<stop stop-color="#91D8F7"/>
<stop offset="1" stop-color="#1692C5"/>
</linearGradient>
</defs>
</svg>
