<svg width="31" height="31" viewBox="0 0 31 31" fill="none" xmlns="http://www.w3.org/2000/svg">
<path fill-rule="evenodd" clip-rule="evenodd" d="M3.54167 13.7917C3.54167 12.4456 3.80679 11.1127 4.3219 9.86916C4.83701 8.62557 5.59202 7.49562 6.54382 6.54382C7.49562 5.59202 8.62557 4.83701 9.86916 4.3219C11.1127 3.80679 12.4456 3.54167 13.7917 3.54167C15.1377 3.54167 16.4706 3.80679 17.7142 4.3219C18.9578 4.83701 20.0877 5.59202 21.0395 6.54382C21.9913 7.49562 22.7463 8.62557 23.2614 9.86916C23.7765 11.1127 24.0417 12.4456 24.0417 13.7917C24.0417 16.5101 22.9618 19.1173 21.0395 21.0395C19.1173 22.9618 16.5101 24.0417 13.7917 24.0417C11.0732 24.0417 8.46607 22.9618 6.54382 21.0395C4.62157 19.1173 3.54167 16.5101 3.54167 13.7917ZM13.7917 0.125C11.6167 0.125311 9.47325 0.644706 7.53941 1.64002C5.60556 2.63533 3.93719 4.07781 2.67295 5.84758C1.40871 7.61736 0.58511 9.6633 0.2706 11.8154C-0.0439092 13.9675 0.159755 16.1636 0.864666 18.2211C1.56958 20.2786 2.75538 22.1382 4.32351 23.6453C5.89165 25.1524 7.79684 26.2635 9.88074 26.8862C11.9646 27.5089 14.1671 27.6253 16.305 27.2256C18.4429 26.826 20.4545 25.9218 22.1727 24.5883L27.9589 30.3745C28.2811 30.6856 28.7126 30.8578 29.1605 30.8539C29.6084 30.8501 30.0369 30.6704 30.3536 30.3536C30.6704 30.0369 30.85 29.6084 30.8539 29.1605C30.8578 28.7126 30.6856 28.2811 30.3745 27.9589L24.5883 22.1728C26.1567 20.1526 27.1268 17.7328 27.3883 15.1887C27.6497 12.6445 27.192 10.0781 26.0672 7.78115C24.9424 5.48422 23.1957 3.549 21.0256 2.19554C18.8555 0.842088 16.3492 0.124716 13.7917 0.125ZM13.7917 20.625C15.604 20.625 17.3421 19.9051 18.6236 18.6236C19.9051 17.3421 20.625 15.604 20.625 13.7917C20.625 11.9794 19.9051 10.2413 18.6236 8.95977C17.3421 7.67827 15.604 6.95833 13.7917 6.95833C11.9794 6.95833 10.2413 7.67827 8.95977 8.95977C7.67827 10.2413 6.95833 11.9794 6.95833 13.7917C6.95833 15.604 7.67827 17.3421 8.95977 18.6236C10.2413 19.9051 11.9794 20.625 13.7917 20.625Z" fill="white"/>
</svg>
